<?xml version="1.0" encoding="UTF-8" standalone="no"?>
<!-- Created with Inkscape (http://www.inkscape.org/) -->

<svg
   width="62.991692mm"
   height="43.873711mm"
   viewBox="0 0 62.991692 43.873711"
   version="1.1"
   id="svg1"
   inkscape:version="1.4 (86a8ad7, 2024-10-11)"
   sodipodi:docname="about_corner_br.svg"
   xmlns:inkscape="http://www.inkscape.org/namespaces/inkscape"
   xmlns:sodipodi="http://sodipodi.sourceforge.net/DTD/sodipodi-0.dtd"
   xmlns:xlink="http://www.w3.org/1999/xlink"
   xmlns="http://www.w3.org/2000/svg"
   xmlns:svg="http://www.w3.org/2000/svg">
  <sodipodi:namedview
     id="namedview1"
     pagecolor="#ffffff"
     bordercolor="#000000"
     borderopacity="0.25"
     inkscape:showpageshadow="2"
     inkscape:pageopacity="0.0"
     inkscape:pagecheckerboard="0"
     inkscape:deskcolor="#d1d1d1"
     inkscape:document-units="mm"
     inkscape:zoom="3.8954759"
     inkscape:cx="133.74489"
     inkscape:cy="114.36344"
     inkscape:window-width="1920"
     inkscape:window-height="991"
     inkscape:window-x="-9"
     inkscape:window-y="-9"
     inkscape:window-maximized="1"
     inkscape:current-layer="layer1" />
  <defs
     id="defs1">
    <linearGradient
       id="linearGradient23"
       inkscape:collect="always">
      <stop
         style="stop-color:#fffe40;stop-opacity:0;"
         offset="0"
         id="stop23" />
      <stop
         style="stop-color:#fffe40;stop-opacity:1;"
         offset="1"
         id="stop24" />
    </linearGradient>
    <linearGradient
       id="linearGradient21"
       inkscape:collect="always">
      <stop
         style="stop-color:#fffe40;stop-opacity:0;"
         offset="0"
         id="stop21" />
      <stop
         style="stop-color:#fffe40;stop-opacity:1;"
         offset="1"
         id="stop22" />
    </linearGradient>
    <linearGradient
       inkscape:collect="always"
       xlink:href="#linearGradient21"
       id="linearGradient22"
       x1="110.88465"
       y1="114.9863"
       x2="175.56648"
       y2="114.9863"
       gradientUnits="userSpaceOnUse" />
    <linearGradient
       inkscape:collect="always"
       xlink:href="#linearGradient23"
       id="linearGradient24"
       x1="111.77871"
       y1="122.05707"
       x2="175.5769"
       y2="122.05707"
       gradientUnits="userSpaceOnUse" />
  </defs>
  <g
     inkscape:label="Layer 1"
     inkscape:groupmode="layer"
     id="layer1"
     transform="translate(-110.84341,-92.500989)">
    <path
       style="fill:url(#linearGradient22);stroke-width:0.328008"
       id="path2"
       d="m 174.29165,93.349997 c -0.11501,0.22854 -0.21308,0.461566 -0.34481,0.685626 -0.54895,0.933708 -1.06101,1.609659 -1.80724,2.507607 -1.99129,2.39619 -4.33311,4.44354 -6.75261,6.63407 -5.88883,5.20555 -12.52838,9.96589 -19.48646,14.47032 -2.32406,1.50452 -4.64183,3.01653 -7.067,4.44077 -2.94243,1.72803 -6.01887,3.34115 -9.02833,5.01173 -12.74482,6.45789 -6.43311,3.35519 -18.92055,9.32262 0,0 0.44745,0.19986 0.44745,0.19986 v 0 c 12.4091,-6.01643 6.1095,-2.90661 18.88894,-9.33925 3.05963,-1.64964 6.19263,-3.23475 9.17896,-4.94889 2.45405,-1.40858 4.78555,-2.91907 7.13292,-4.41401 7.0284,-4.47606 13.78527,-9.18445 19.76133,-14.36435 1.7443,-1.52213 3.84008,-3.28882 5.45964,-4.911508 0.53392,-0.53494 1.01128,-1.096652 1.49502,-1.65447 0.87742,-1.011746 1.70989,-2.046508 2.31757,-3.153849 z" />
    <path
       style="fill:url(#linearGradient24);stroke-width:0.188332"
       id="path3"
       d="m 174.85989,107.34615 c -0.48669,0.76922 -1.22797,1.41003 -2.01268,2.03975 -0.5692,0.45678 -1.16213,0.89869 -1.75935,1.33724 -1.77905,1.30639 -2.9856,2.11017 -4.8599,3.3961 -4.22902,2.88446 -8.74032,5.56088 -13.5945,7.90664 -3.34918,1.61846 -4.77119,2.16259 -8.25612,3.62592 -6.22386,2.4748 -12.57408,4.79574 -19.05055,6.9232 -1.17097,0.38466 -2.35118,0.75515 -3.52677,1.13272 -2.71471,0.85084 -5.46422,1.64611 -8.25123,2.37097 -0.58756,0.15282 -1.18007,0.29597 -1.77008,0.44395 0,0 0.5153,0.24535 0.5153,0.24535 v 0 c 3.30961,-0.90928 6.59325,-1.86523 9.82098,-2.9127 1.168,-0.38128 2.3398,-0.75676 3.50397,-1.14385 2.79191,-0.92829 4.70273,-1.59031 7.46495,-2.57713 3.8899,-1.38972 7.74763,-2.82617 11.50956,-4.38355 3.43868,-1.4447 4.95536,-2.03277 8.26919,-3.62194 4.87836,-2.33944 9.4215,-5.00252 13.7057,-7.86137 2.0417,-1.35524 3.03088,-1.99367 4.97382,-3.34841 0.81308,-0.56694 2.32466,-1.6299 3.11573,-2.30611 0.35253,-0.30135 0.6338,-0.6493 0.91899,-0.98376 z" />
  </g>
</svg>
